<svg version="1.2" xmlns="http://www.w3.org/2000/svg" viewBox="0 0 512 512" width="512" height="512"><style>.a{fill:#6ee7b7}.b{fill:none;stroke:#fafafa;stroke-miterlimit:100;stroke-width:28}.c{fill:#fafafa}</style><path fill-rule="evenodd" class="a" d="m130 0h252c71.8 0 130 58.2 130 130v252c0 71.8-58.2 130-130 130h-252c-71.8 0-130-58.2-130-130v-252c0-71.8 58.2-130 130-130z"/><path fill-rule="evenodd" class="b" d="m256.3 432c-97.2 0-175.8-78.6-175.8-175.7 0-97.2 78.6-175.8 175.8-175.8 97.1 0 175.7 78.6 175.7 175.8 0 97.1-78.6 175.7-175.7 175.7z"/><path class="c" d="m256 128c7.7 0 14 6.3 14 14v114c0 7.7-6.3 14-14 14-7.7 0-14-6.3-14-14v-114c0-7.7 6.3-14 14-14zm5.3 114.5l110.4 47.2c7.1 3.1 10.4 11.3 7.3 18.4-3 7.1-11.2 10.4-18.3 7.4l-110.4-47.2c-7.1-3.1-10.4-11.3-7.3-18.4 3-7.1 11.2-10.4 18.3-7.4z"/></svg>